<svg width="63" height="86" viewBox="0 0 63 86" fill="none" xmlns="http://www.w3.org/2000/svg">
<path d="M44.5799 68.3877L43.4699 69.9847L39.7411 74.6889L39.329 72.4931L38.8305 70.5968L38.8836 70.151L38.425 68.4011L39.0498 65.846L41.7218 62.9849L41.9611 62.7254L42.772 61.0686L44.3805 59.5449L45.9558 59.2454L46.1618 63.3575L45.4373 64.9544L45.3111 67.6093L44.5799 68.3877ZM49.0266 52.1392L48.7341 51.0413L48.8006 48.3265L48.3021 48.6459L47.9232 50.4158L47.1256 51.6801L46.9196 53.5764L48.548 51.9795L49.0266 52.1392ZM45.2379 33.4686L45.0452 32.9496L42.433 30.8404L41.9677 31.1398L43.2107 33.9743L45.5503 35.4315L45.7232 35.0189L45.6567 34.7195L45.7232 34.2338L44.1279 33.6216L45.0851 33.5218L45.2379 33.4686ZM41.7151 26.3557L42.207 25.504L42.4928 26.349L42.978 26.2825L43.0844 25.7435L41.9278 24.2997L40.5985 24.7322L40.6184 26.0563L41.7085 25.85L41.3496 26.3623L41.7151 26.3557ZM47.9897 57.6086L47.7637 55.3929L45.7032 55.6524L44.5799 59.1123L46.8664 58.7397L47.9897 57.6086ZM39.1761 80.0186L40.2329 79.1802L40.1399 78.608L39.648 77.8228L39.1428 78.2553L39.1761 80.0186ZM43.224 74.0035L43.7624 73.7307L44.4869 72.9256L43.7225 72.7061L42.2203 74.0768L43.224 74.0035ZM14.6295 79.6726L13.021 81.1564L11.7448 81.0499L9.92364 79.5927L10.349 77.031L9.93692 76.7516L10.3889 75.3343L12.7751 73.957L13.2138 73.1186L13.1141 71.5616L14.1709 68.8801L17.2284 66.1521L18.3252 64.1892L20.2062 64.7481L21.9144 63.8166L22.5126 60.9089L23.3834 59.1523L22.8317 56.89L22.1404 56.7037L22.1736 54.2883L21.3428 51.2941L21.5488 49.7505L21.9875 49.2647L23.503 49.6174L24.3139 49.2448L25.1115 47.7809L25.5236 44.5139L27.3049 42.9503L27.737 40.6946L30.2827 40.5815L30.9208 39.6899L30.9407 38.785L31.8314 39.3373L34.3505 39.823L35.0617 41.5729L36.3047 40.5083L35.3874 38.0464L37.6074 36.3164L36.6769 33.4819L40.5852 32.8565L44.2077 35.3716L44.7062 36.1301L45.0851 38.0864L46.1751 39.8962L45.4307 41.2469L45.0851 40.4684L45.0651 43.2431L47.6906 46.5566L45.9425 53.1239L45.1648 54.4081L41.8481 57.5953L40.8976 59.9973L39.7743 60.7758L39.3888 61.6408L35.4207 66.6977L32.7819 65.9525L31.9976 66.2785L29.2923 68.4742L27.6173 73.0454L26.3279 72.2536L24.9719 73.3781L24.5 74.8686L23.5296 74.3362L22.8051 73.245L21.2763 72.5996L21.1367 72.9523L19.1892 73.3648L18.611 72.899L17.9197 73.1386L16.71 75.0149L17.4013 76.552L15.7396 76.6651L15.3208 77.2439L15.4737 78.3618L14.6295 79.6726ZM44.1811 12.223L44.6796 12.4426L45.7564 12.5424L45.9957 11.2316L44.334 11.7905L44.1811 12.223ZM45.0585 5.99508L43.6693 3.14725L43.2638 2.32883L41.4692 3.03413L40.9641 2.84119L41.2898 2.64822L42.998 1.90964L43.0113 1.35072L41.7484 1.16441L40.7647 1.65681L38.9634 3.20048L38.8504 3.26702L36.0122 4.12536L34.7693 5.00367L36.8298 5.45612L38.651 6.68042L39.3888 7.21272L39.7677 6.80684L42.0741 11.4845L43.9019 11.1584L45.1848 10.0539L45.4972 9.12237L45.0585 5.99508ZM11.9841 73.3182L9.37195 72.9323L8.18883 71.7812L7.63715 69.4923L10.1696 68.4077L10.6348 67.2366L10.3224 64.7681L10.6016 63.2244L13.041 61.0885L12.3497 59.9707L10.0167 58.7797L12.5956 57.8282L13.4265 56.9898L13.8918 54.4414L15.0682 53.8625L15.5734 52.7646L15.5202 51.201L14.5697 48.7058L15.7794 47.5547L17.1553 45.1593L19.4285 43.1033L19.4485 41.2802L20.6249 39.2308L20.7446 38.7251L21.7283 37.7736L21.2763 36.9685L19.9935 37.2679L20.3391 35.1254L21.2896 33.1692L20.06 32.0713L19.5615 29.9421L21.5887 29.137L23.4764 29.6028L25.0517 28.9706L25.969 29.1969L26.7666 27.427L28.8404 27.5401L29.5117 28.6047L30.0301 28.5515L32.0042 25.0782L32.8949 24.6457L32.7021 22.7427L33.4466 22.6762L34.0448 23.6077L35.4605 23.2883L35.8593 22.7094L35.2213 21.9043L35.9325 21.0992L37.3083 21.4452L39.2691 23.3681L39.8939 24.8652L39.216 25.4907L39.8873 25.351L40.1532 32.2842L36.2582 33.3488L37.0092 36.2765L35.3874 37.5807L35.2345 38.2727L35.959 40.1158L35.2412 40.8477L34.4502 39.5369L32.2236 39.1243L31.1667 38.4523L30.6283 38.6187L30.3359 40.0559L29.4984 40.4684L28.2621 40.1357L27.2784 40.4551L27.0524 42.2583L24.8257 44.9863L24.274 48.6459L23.6825 48.8788L22.8848 48.5262L21.2963 49.125L20.831 49.9102L21.4425 56.5507L22.7918 59.0259L21.7948 60.8024L21.2431 63.3908L18.1457 63.5105L16.2713 65.9857L13.8918 67.7889L12.5558 70.2042L11.9841 73.3182ZM38.631 20.6734L37.9863 19.4956L37.1821 19.4557L37.2818 20.3274L38.4915 21.372L38.631 20.6734ZM48.3021 39.0645L46.7999 39.8297L45.2778 42.8105L48.5148 46.5167L48.2755 43.9683L48.6743 41.3201L48.6544 40.9475L48.8804 39.497L48.3021 39.0645ZM49.1728 73.591L47.4048 76.5187L46.6205 79.2268L47.9498 79.0072L48.8737 78.9207L50.4224 76.9712L51.1868 76.0929L52.1772 73.5378L50.6551 73.4247L49.1728 73.591ZM46.5474 71.4352L45.2712 69.8649L44.1877 70.9162L43.769 72.3468L44.899 72.6662L45.0718 72.6595L46.1884 73.3182L47.099 72.5198L46.5474 71.4352ZM43.6228 74.283L41.5158 74.6423L40.1532 76.5985L40.1066 77.6299L40.6184 79.1336L44.1745 79.5927L44.0881 78.7211L44.8857 77.7563L45.8428 74.5225L46.0887 73.7507L44.9123 72.8924L43.6228 74.283ZM54.796 76.685L53.799 77.5833L53.141 79.1137L53.3736 81.2895L54.2443 81.1763L55.8728 77.8561L55.3809 76.8913L54.796 76.685ZM58.8505 77.7829L57.8867 77.8761L56.8698 79.8789L57.7738 79.8589L57.7006 79.1203L58.3454 78.5614L58.4052 79.1869H58.7907L59.3956 78.6546L59.2693 78.1755L58.8505 77.7829ZM49.2327 35.4448L47.9033 34.8859L46.4477 35.1653L45.8096 36.0237L46.122 37.0484L47.006 37.5674L47.5444 38.7783L48.8737 39.0378L48.7341 37.248L48.4417 36.2965L48.7209 35.8706L49.2327 35.4448ZM56.4843 35.2984L62.4597 42.7241L62.1407 44.8732L60.8313 47.2287L60.8845 54.1686L59.7744 61.7007L59.0499 63.6502L57.4547 66.2186L54.5634 68.3744L51.8515 71.4152L49.3324 72.1605L47.8235 72.2935L47.0392 71.4552L45.8428 69.8516L45.67 68.8003L47.1057 64.3422L47.3849 59.3386L48.9535 57.4289L50.6484 53.3102L51.0672 49.5375L50.4424 47.0224L50.0768 35.9106L49.1064 34.4467L47.1456 33.8146L46.9063 34.1207L45.8428 33.6416L44.1346 31.5324L41.7218 30.3214L42.4064 29.1969L44.3207 28.0258L44.427 26.8414L43.8022 24.8054L43.3569 24.5126L42.2203 24.4394L42.3067 21.9842L42.0275 21.6115L41.4626 21.1258L41.4426 23.9271L40.7514 24.293L39.0564 21.8178L38.6643 19.7818L37.8733 18.9966L37.3349 19.1496L36.8564 17.6259L36.1784 17.779L35.3808 18.8835L35.0351 18.8635L35.3741 19.5555L35.6865 20.527L34.5034 21.8245L35.2146 22.7493L34.1179 23.4214L33.6194 22.2636L32.7354 22.1705L32.3897 22.7893L32.5094 24.5259L31.8513 24.9584L29.7244 28.4849L28.9799 27.4004L26.7134 27.1409L25.8692 29.0239L24.726 28.7444L23.4631 29.4364L21.5954 28.8775L19.3621 29.7558L19.8473 32.2776L21.0769 33.2291L20.2461 34.3868L19.6412 37.1482L20.0533 37.594L21.3694 37.2946L21.509 37.7204L20.4189 38.5987L19.2092 41.0806L19.156 42.9237L17.1819 44.4674L15.4006 47.4283L13.9981 48.7524L14.018 49.817L14.9021 51.3075L14.4169 52.9044L13.154 54.7275L12.7419 57.1827L10.3025 57.7749L9.5913 58.427L9.81729 60.1171L12.2434 61.0286L10.3424 62.1465L9.42513 63.3575L9.2656 64.5086L9.8904 66.4049L7.45768 68.4942L6.71325 69.9181L7.77672 74.3096L7.11205 75.2345L5.90898 75.667L4.55304 74.9085L4.22071 71.861L3.29015 70.3972L2.26655 67.1435L2.93787 62.6988L0.884022 56.7769L0.279163 53.104L3.6092 45.4055L7.03229 42.4912L7.80332 38.8981L9.58465 38.7983L9.39189 38.3592L8.18218 38.1728L6.54042 38.9979L7.09876 39.3107L6.8063 41.5264L1.92757 45.7715L0.445333 44.2345L1.0369 42.378L1.09672 43.1965L3.11734 41.9788L4.57298 41.6794L5.11137 40.8876L4.40016 40.1091L2.95117 40.3686L1.59523 39.9694L1.19642 39.1177L1.64175 38.0531L3.2968 38.0198L6.20144 38.7983L6.17486 37.9134L3.48291 37.7403L5.40383 35.2984L6.10174 32.4905L5.47029 31.7918L3.26357 31.4725L3.81525 28.8509L1.66834 27.6798L2.22002 26.5354L3.12398 27.5467L3.7089 27.2739L4.56633 26.5021L4.05454 25.9033L2.49918 25.3709L0.604859 25.7302L0 25.158L2.70524 23.2085L4.16088 23.5345L4.347 21.5517L3.09076 21.6382L3.17051 20.7066L2.57895 20.1078L4.83221 19.7085L4.51316 18.6639L3.2968 18.5175L4.56633 17.0404L5.2709 16.5879L4.66604 14.0794L6.22138 14.8114L9.57136 13.78L10.6548 9.60145L12.157 9.25544L12.25 6.95323L12.9546 6.91331L14.5631 4.57782L16.3378 4.47801L16.8629 2.33549L17.3481 1.88304L16.8562 1.49046L17.9396 1.17108L18.5844 0.226227L20.4521 0.971469L21.8945 0L23.1108 1.55699L22.8383 3.92576L23.1773 4.24513L22.5791 5.48938L23.164 6.95989L23.616 6.28119L24.6795 6.28785L24.3073 6.84676L24.5532 7.27926L25.6366 6.24127L26.3279 6.66046L28.7539 6.46749L28.9068 4.74416L27.8766 2.71476L28.4548 1.13115L31.6586 0.99807L34.8756 2.05602L35.0152 2.5085L34.2375 3.23376L32.5825 3.59971L35.0551 4.09874L33.4599 4.7109L37.0159 6.19468L37.4812 6.45419L40.1465 8.55014L41.529 11.4645L39.2824 13.3143L39.3024 13.6536L38.2322 15.6897L38.5912 17.1469L39.2027 17.5328L39.2891 17.9653L40.1731 16.8075L38.857 15.2771L40.6583 13.261L40.778 12.6821L41.6952 12.2363L47.7504 13.3741L49.8109 15.1507L50.8811 16.8873L50.1698 17.5261L48.8206 17.8255L44.9987 17.5261L42.1804 18.7238L40.3792 18.0717L39.6879 18.3113L41.3031 18.7704L41.9943 19.8882L43.6627 18.451L45.7763 18.1316H46.2283H46.4543L48.2024 18.471L49.2925 19.0765L52.4431 28.7777L53.8455 30.3081L55.454 31.1864L56.4843 35.2984ZM26.6602 72.899L27.4113 73.6243L27.2052 74.975L24.9254 80.165L24.5465 82.4805L22.2534 84.4367L20.6382 85.1952L18.6774 85.1553L15.4272 84.104L13.8652 82.7067L13.8519 81.2429L14.6628 80.99L15.7994 78.628L15.7595 76.9379L17.0955 76.9712L17.614 76.5719L17.0157 74.7821L18.3916 73.1053L19.0696 73.5977L21.6818 72.9589L22.8383 73.7707L22.9845 74.5824L23.3435 74.4826L24.726 75.341L25.4638 73.2583L26.6602 72.899ZM33.3735 72.3135L33.2737 71.1025L30.6948 73.0388L27.5243 79.6859L27.8234 81.3493L28.4548 82.068L30.6815 81.7353L31.7849 80.5309L30.5818 77.4236L33.3735 72.3135ZM32.9281 68.6206L35.1149 66.7709L34.0714 66.4515L32.9082 66.0855L31.1268 67.7689L29.6313 70.4837L29.7576 71.7146L29.6513 72.4466L32.7819 68.9866L32.9281 68.6206ZM34.5366 79.7192L36.3379 79.28L36.9295 78.4416L37.1887 77.7097L34.8557 78.6878L34.5366 79.7192ZM35.3941 82.0879L35.2478 82.9396L37.0358 82.567L36.8829 81.1032L35.3941 82.0879ZM38.2522 69.8383L37.408 68.2014L34.3372 69.8782L34.1711 70.0911L33.5463 70.863L33.7988 72.4399L31.7649 76.0729L31.18 77.2839L31.5057 79.3732L32.6091 80.1849L33.1608 80.1251L33.7922 78.8675L37.2219 77.2573L39.0232 75.168L38.2522 69.8383ZM40.4523 82.4738L40.5254 81.5822L40.0136 81.3959L38.3984 82.3142L38.0461 83.5518L38.3452 84.3502L39.2558 84.4234L41.21 83.1791L41.3828 82.7733L40.9641 83.0727L40.4523 82.4738ZM42.2868 80.1849L41.1834 79.4397L39.9338 80.837L42.5527 81.5024L42.9515 81.2362L42.6723 80.5376L42.2868 80.1849Z" fill="#F0EBE2"/>
</svg>
