<svg width="133" height="237" viewBox="0 0 133 237" fill="none" xmlns="http://www.w3.org/2000/svg">
<path d="M21.7217 127.646L21.5156 130.182L21.0969 130.561L20.8443 130.295L21.3627 128.784L20.8642 128.412L20.6914 127.873L21.5023 126.269L21.7217 127.646ZM23.3036 133.242L23.8885 132.863L24.6662 130.721L24.2541 129.21L22.8716 132.637L23.3036 133.242ZM27.1188 128.019L27.7037 126.968L27.7237 125.99L26.946 124.779L25.6831 125.504L25.6499 127.214L26.3943 128.052L27.1188 128.019ZM28.6609 133.755L27.5176 129.436L26.6004 129.716L26.5804 133.888L21.5821 146.683L22.393 147.555L23.1706 148.22L23.7223 148L24.1211 146.104L26.8729 141.846L28.1026 138.812L28.6609 133.755ZM32.0375 129.27L31.2398 127.986L29.7177 129.33L30.6018 130.501L31.9311 129.796L32.0375 129.27ZM30.7746 132.823L30.3957 131.818L29.618 132.544L30.1365 134.44L30.7746 132.823ZM28.0693 122.51L27.8633 123.162L28.7406 128.006L29.5715 128.678L30.6616 127.56L31.1069 125.99L31.5323 123.348L29.8041 122.197L28.0693 122.51ZM29.0597 131.206L29.5117 132.344L30.3625 131.486L29.412 130.461L29.0597 131.206ZM10.9007 90.4384L10.6282 89.986L8.99308 87.9366L8.54775 87.7104L7.76343 88.256L9.43842 90.984L9.59129 91.1171L11.459 94.1646L11.705 93.9051L11.9642 93.1399L10.9074 90.6713L10.9007 90.4384ZM4.09442 71.9143V71.901L4.00136 72.0141L4.09442 71.9143ZM26.6403 124.426L26.4874 123.049L25.3308 123.554L25.7828 124.526L26.6403 124.426ZM29.957 147.402L28.6277 146.883L28.076 147.182L26.9859 149.544L27.2119 150.941L27.8832 151.534L29.299 150.755L30.2827 149.438L30.0434 149.178L30.4954 148.247L29.957 147.402ZM23.3169 118.857L23.5229 119.768L24.9254 120.008L25.3242 120.048L27.7436 119.136L26.1551 116.768L25.0982 117.067L25.9291 116.488L23.7157 114.605L20.811 114.346L19.5282 113.467L18.5578 114.346L18.611 114.831L22.9712 119.343L23.3169 118.857ZM43.6627 124.539L43.9751 125.437L44.8391 125.976L45.3044 124.539L44.6996 123.794L43.6627 124.539ZM52.0177 107.346L51.8116 106.64L50.9276 105.556L48.681 104.378L47.006 105.403L47.7704 108.597L49.4121 110.646L51.333 111.225L52.8419 112.323L53.7259 109.808L53.6926 108.703L52.0177 107.346ZM46.3081 111.059L45.3576 111.025L44.992 110.806L44.5068 111.957L45.0917 114.379L46.2682 112.516L46.3081 111.059ZM46.4277 115.969L45.4905 117.779L45.1117 118.97L45.7896 119.715L48.0761 116.847L48.2689 115.636L47.7172 115.171L46.4277 115.969ZM61.6355 117.699L57.6541 112.423L56.564 111.657L54.9688 112.556L55.1948 113.001L54.3839 112.908L53.9718 113.86L54.3905 114.199L53.892 114.365L54.9821 119.509L56.1054 122.49L58.372 126.402L60.2264 127.221L61.6954 127.054L63.8954 126.05L64.4006 124.839L64.1414 122.829L61.6355 117.699ZM84.0883 159.551L83.0182 158.061L81.2369 159.518L80.8647 161.208L81.6157 164.588L81.0441 166.046L81.1505 168.095L80.5456 169.313L80.9045 170.284L81.3764 170.204L84.3874 162.06L84.0883 159.551ZM131.247 195.775L129.459 186.586L128.329 173.045L128.828 165.926L129.399 164.642L129.027 163.836L129.911 160.676L129.021 156.95L128.967 152.951L128.19 150.436L128.562 149.105L126.408 144.321L127.478 143.616L128.868 144.847L129.114 141.393L128.542 140.754L128.103 135.757L127.385 133.602L127.472 131.486L126.109 126.735L125.312 118.105L124.614 115.849L123.982 115.297L124.547 114.193L124.507 112.489L123.71 107.652L122.294 103.653L121.543 102.429L120.872 101.85L121.197 101.151L120.646 100.379L120.652 99.4344L119.489 97.7376L119.841 97.1189L119.828 96.4136L119.821 95.5552L119.443 94.4839L118.771 93.0268L117.861 93.4726L116.983 91.7226L116.166 91.5097L115.601 90.465L114.285 90.2455L114.909 86.7389V83.2989L115.421 81.9415L114.81 79.972L113.686 78.7211L114.165 77.244L113.627 76.5985L114.059 75.0948L113.932 73.4646L113.474 72.919L113.407 69.8516L116.365 69.2727L115.853 67.7024L115.142 66.3916L115.062 65.0608L114.138 64.0894L114.803 62.2463L114.61 61.4146L114.231 60.8357L113.906 60.3034L113.327 60.1437L113.447 58.2673L112.869 57.8814L112.729 56.5639L112.144 56.7702L112.038 55.0935L111.972 54.5212L111.626 53.5631L111.061 52.7846L111.048 50.4491L110.403 49.8303L110.729 48.4197L109.718 46.1574L109.206 45.6251L109.193 44.301L109.619 43.6423L108.455 43.3162L109.293 38.9713L107.691 36.6757L106.608 36.7822L105.963 37.6539L106.302 39.1376L105.757 40.5948L104.64 41.3866L104.182 41.0074L104.481 38.9114L103.583 38.1129L102.54 37.8734L102.194 35.7708L101.623 35.7109L100.293 36.383L97.5148 40.1756L96.5643 40.1291L96.3383 41.706L95.3214 42.3315L93.1346 41.1804L92.3636 41.4332L89.9043 36.5759L88.5616 36.7157L88.2625 38.6519L87.3253 39.823L88.2226 44.1479L87.8704 46.2838L88.6746 46.7962L88.4951 49.5841L88.9272 50.1697L88.4154 50.7618L89.326 51.8331L89.3858 53.3169L87.312 54.2151L87.6443 55.9119L87.3054 56.351L84.9192 56.0915L81.423 58.8795L80.8513 59.9441L81.2169 60.2235L78.9903 63.0381L76.6639 68.095L76.9231 69.2993L77.9866 70.4172L77.9401 71.688L78.4386 72.6196L78.8307 75.1879L79.3093 75.7069L79.2296 77.071L79.7746 77.6099L79.861 78.954L79.9009 80.0652L80.0139 80.6041L79.4157 81.1763L77.2488 81.2628L76.9431 82.8132L75.4276 85.2019L73.839 86.5992L72.1441 85.7009L71.5326 86.6923L70.7217 86.699L69.5784 86.7788L69.3059 87.0184L67.2255 88.5887L66.3282 88.8415L66.7735 87.6771L65.8695 87.5174L64.9922 88.3624L63.7093 87.4708L63.696 86.5792L62.8452 86.2399L63.1178 84.8226L63.1776 83.6116L62.2005 83.5518L62.38 82.4938L62.247 81.7086L61.7485 80.5442L62.0011 80.0252L60.7714 78.781L61.27 78.1954L60.3594 77.3238L60.7848 76.6917L60.4524 75.7469L60.047 74.7222L59.7013 74.2165L59.1164 72.4865L58.937 71.5882L57.2354 71.3753L58.2457 70.69L57.7405 69.825L56.8033 69.4923L57.3018 68.7337L54.7096 68.7604L54.0316 69.5322L53.8322 70.6567L53.3204 70.843L52.8884 73.8106L53.0546 75.6271L54.2111 78.7144L54.0848 79.5262L54.3507 80.2914L54.9888 80.5709L54.9555 81.9149L53.7259 82.414L52.1905 81.5889L50.6949 79.1536L49.8043 75.7269L49.2459 75.2744L48.9468 69.6786L48.9335 68.7936L48.3819 67.383L48.7607 66.884L47.7571 66.3118L48.7009 65.5266L48.3486 64.7082L47.1854 64.2557L47.5111 62.8917L48.2888 62.6522L48.9535 61.4678H47.3516L46.7933 60.8224L46.5208 60.4032L46.2482 57.8282L44.8591 55.6457L44.4802 52.8578L43.4632 52.5317L43.563 51.9529L42.8185 51.2143L41.5556 50.9615L41.3895 50.5223L42.2535 48.8921L41.097 48.9187L41.0638 47.721L39.8607 46.3637L40.0136 45.8247L39.0498 45.4854L38.7175 40.6214L39.648 41.5264L40.8378 41.6528L41.0638 42.2184L41.7484 41.5663L41.7617 39.4703L41.1967 39.1376L38.538 39.2175L38.2987 37.9599L38.6709 35.9571L39.4154 35.0988L40.8577 35.0189L42.0276 35.2319L42.6723 35.9105L43.2638 33.9277L43.1376 32.058L44.7261 29.1703L43.1642 26.216L43.1442 25.1114L44.221 24.1733L43.337 23.1353L45.896 23.2949L45.2645 21.7779L45.6234 20.7598L46.3612 19.4358L46.7202 20.4604L47.3516 20.1411L47.7704 18.3844L47.1655 18.0784L47.2453 17.0337L47.9166 17.1136L48.2423 15.51L47.6175 14.1859L46.6338 14.0661L46.8531 11.6774L46.0621 11.8637L45.444 11.4046L45.6234 10.5197L46.8531 10.0739L45.5769 9.6347L45.5902 8.55013L45.0252 8.40374L45.9159 7.08629L46.1353 5.88196L47.664 5.14338L48.3486 5.37627L48.2423 4.31831L46.348 4.91716L45.9093 4.50462L46.4144 3.33355L47.1589 3.71947L47.2851 2.92102L47.8302 3.14059L48.4483 2.44194L48.9734 2.45525L48.9601 0.432493L48.1027 0L47.4181 0.31938L46.5872 1.44387L46.3612 2.52845L46.667 2.90106L45.9425 3.04078L41.0571 2.10925L39.7411 0.399222L37.4878 2.02941L33.872 2.10925L33.6061 3.48658L34.5499 4.13866L34.4303 4.43808L31.067 4.23182L29.7576 6.1481L27.6905 7.4456L28.7074 9.17558L31.5456 10.7659L32.1372 12.1432L31.4592 13.434L27.7104 15.9691L26.6934 17.8721L26.9593 20.6002L25.3774 21.8976L25.5236 23.601L23.9151 24.9185L23.4166 27.0943L22.0806 28.2121L21.3694 28.1722L20.0068 26.8814L18.4249 27.6998L15.0882 27.5068L13.7921 28.099L13.38 29.0039L14.0845 30.2482L14.1244 32.0913L11.8313 34.8393L11.4324 35.9372L11.5321 37.055L12.7352 38.9713L12.1835 40.8676L10.8409 41.2203L8.86015 40.0625L6.65342 40.4751L5.63646 44.1413L7.35797 44.4474L8.06918 46.0842L7.21174 46.2639L6.67336 47.1954L9.10608 48.2933L10.7345 51.9262L9.08614 52.9709L6.56702 51.9928L5.13131 52.8511L3.35662 53.084L0 60.0106L0.771028 62.2463L2.53242 63.4839L2.18678 65.5931L4.6328 71.2023L6.13497 71.0493L6.20808 74.5359L7.1054 77.6099L6.22138 79.7857L6.01533 84.4434L6.41413 86.2399L7.67703 88.1495L8.42146 87.3644L9.30548 87.4043L10.9472 89.7331L12.456 93.1465L13.8718 94.8499L13.8519 94.9231L15.148 97.538L14.8356 100.885L17.4146 105.928L19.1095 108.204L19.7143 108.277L20.1331 108.577L21.8812 108.929L22.5592 110.18L28.6609 114.212L33.3203 119.615L35.7596 116.914H36.7434L37.5875 117.233L38.2256 116.821L38.5579 117.047L38.8172 117.366L38.3519 117.945L39.0764 118.265L42.9847 115.763L43.9352 116.102L45.0984 115.077L43.8687 112.077L44.9787 110.639L46.2217 110.287L45.65 109.894L45.7165 109.016L44.5068 107.465L43.4367 107.632L43.091 107.292L43.8886 107.273L43.2838 105.889L41.8813 105.815L41.2765 104.451L40.3459 104.338L40.5187 104.059L41.1103 104.079L42.1804 105.35L42.8052 104.751L43.3104 104.997L44.7793 106.434L47.325 103.373L47.8435 103.127L49.9173 102.661L52.0642 102.888L52.7754 102.588L52.9283 101.823L51.22 101.277L52.463 100.419L53.9718 101.504L54.0914 102.402L54.8027 102.908L55.6003 101.211L54.9954 100.313L55.1151 99.6007L54.2177 99.0218L55.3743 96.7396L55.4607 97.7709L54.7495 98.7224L56.6372 100.592L57.0891 102.834L57.0692 103.227L57.7073 104.797L62.9117 108.064L65.6302 111.178L66.1155 112.356L70.3362 116.648L72.842 120.414L73.4336 122.836L74.3707 124.16L74.1315 124.646L74.8227 125.504L76.5908 133.289L76.3648 134.853L78.4386 137.94L79.0567 137.487L79.4555 137.7L79.4024 140.023L80.5124 144.021L81.2369 145.359L81.6024 145.505L82.194 144.88L82.4333 145.432L82.3801 147.195L83.2243 150.003L83.3971 151.673L82.8587 152.938L83.869 154.608L85.544 160.483L85.7766 162.785L85.3845 165.3L81.9614 174.722L82.3868 175.727L83.3505 176.698L83.7626 176.625L83.9753 176.126L84.4207 176.718L83.849 177.577L83.9222 178.495L83.4569 178.548L83.5101 180.072L83.0647 180.93L83.5632 181.662L84.7264 181.289L84.075 182.108L83.4436 181.915L83.0514 182.401L83.1578 182.866L83.8889 183.405L83.211 183.911L82.3402 183.498L81.7487 184.523L81.9481 184.989L84.2346 187.71L85.1784 188.143L85.4975 187.537L84.8195 187.072L85.4243 186.805L85.0854 186.213L85.5839 185.96L86.0092 186.333L87.8836 186.353L89.4722 185.814L90.2765 177.75L90.7218 176.712L91.5327 179.712L91.32 180.052L90.6022 181.269L91.001 185.215L90.2499 187.311L89.3792 188.189L89.0402 188.123L88.2359 188.975L87.9169 188.775L87.9435 189.593L92.0778 195.216L93.9787 199.82L94.0851 207.798L102.493 218.371L103.603 222.31L105.192 225.684L108.236 230.335L110.523 235.604L111.958 236.875L112.37 235.824L110.935 230.208L109.672 227.101L107.957 225.318L107.319 223.009L107.385 221.106L106.661 217.4L107.458 215.517L105.159 212.769L104.966 211.072L105.145 210.686L103.869 210.194L102.792 207.984L103.922 205.389L104.268 205.622L105.238 204.391L103.716 200.446L103.377 198.237L105.464 196.347L106.947 195.908L106.887 193.938L107.658 193.399L107.824 191.576L109.034 191.556L109.964 192.248L110.948 191.949L112.284 189.487L113.846 188.303L115.222 188.429L117.302 191.277L117.741 193.1L117.455 194.544L118.053 195.588L122.148 196.819L122.792 196.567L122.879 195.635L123.896 195.841L125.106 195.083L125.883 195.582L126.721 198.929L127.977 201.61L128.137 203.486L129.266 203.613L130.257 202.156L132.969 200.346L131.247 195.775ZM32.1903 149.098L31.8646 151.347L33.9052 149.584L33.6127 148.619L32.1903 149.098ZM45.3509 123.168L46.2217 124.28L46.8664 124.286L46.9661 123.86L45.8893 122.723L45.3509 123.168ZM37.6008 118.837L37.9531 117.513L37.7072 117.406L36.8896 117.373L36.5905 117.114H35.846L34.3904 118.537L33.7191 120.088L33.6659 122.137L34.2907 122.157L36.6437 119.416L37.6008 118.837ZM38.99 131.319L38.1059 128.492L36.8098 127.147L36.7234 126.103L32.968 124.373L33.0345 128.452L32.6224 130.927L32.8484 136.416L31.8248 140.375L29.4718 145.379L29.8905 146.231L32.2103 147.794L35.0285 145.193L37.069 144.248L37.1887 143.223L37.5676 143.336L38.312 142.019L39.0033 141.646L39.1428 140.142L39.5749 140.109L40.6849 136.722L40.532 133.874L38.99 131.319ZM39.648 118.557L41.0172 119.176L41.1568 118.205L40.4656 118.072L39.648 118.557ZM37.9531 119.376L36.1385 121.651L37.6806 121.691L39.6214 120.607L40.7647 119.356L39.6081 118.651L37.9531 119.376Z" fill="#F0EBE2"/>
</svg>
