<svg width="122" height="178" viewBox="0 0 122 178" fill="none" xmlns="http://www.w3.org/2000/svg">
<path d="M76.7835 158.78L78.1661 159.512L78.1328 160.396L77.4549 160.556L77.9799 161.122L76.8434 161.175L75.2082 161.834L75.4076 161.029L76.3781 159.512L76.7835 158.78ZM119.443 72.4133L120.3 72.5796L121.729 71.6082L120.652 69.7651L120.007 69.9048L119.456 69.479L119.343 68.5807L120.719 68.6273L120.918 68.0684L120.027 64.8878L119.084 64.8346L119.622 65.7262L118.539 65.3137L117.448 66.8108L117.335 65.8061L118.013 65.4534L116.358 65.001L115.674 65.52L115.255 65.307L116.584 63.6902L117.096 64.6417L117.548 64.2225L119.203 62.2396L120.453 59.1922L118.22 58.0078L118.645 57.4023L118.446 56.5772L117.016 56.005L116.857 55.0203L118.04 55.6191V55.0469L118.632 55.0602L118.758 53.9357L119.702 53.9157L120.247 53.3302L119.569 52.3321L120.759 52.1259L120.798 51.0812L119.569 50.5423L120.127 49.8835L119.821 48.8123L118.798 49.8436L117.163 48.799L116.033 49.3712L115.8 48.8788L114.723 48.8655L115.401 48.3531L115.135 47.4482L115.594 47.6878L115.847 47.1954L115.388 47.2287L115.408 46.7429L114.61 46.6431L114.491 46.2506L115.102 45.838L116.019 46.031L115.94 45.4122L116.804 44.7934L115.88 44.2345L116.817 42.7307L116.704 41.4798L115.68 40.8743L115.009 41.8058L115.202 42.3448L114.318 43.0368L115.149 44.0415L114.158 44.1879L113.155 42.6176L113.547 41.2935L114.099 40.861L113.833 40.3287L113.181 40.3021L112.417 37.7603L111.008 36.6691L108.708 36.3098L107.877 37.8135L107.279 37.6738L106.986 36.9552L106.122 37.2213L105.405 35.7642L103.171 35.7109L103.098 34.0142L102.679 34.0475L103.975 33.4686L104.221 32.6369L103.523 31.6854L102.48 31.4259L102.706 29.4298L101.875 28.3119L102.221 27.7397L103.783 27.081L101.835 26.5087L101.702 24.2598L102.62 24.0402L103.404 24.7455L104.401 24.4261L104.228 23.1885L102.925 21.9842L103.324 21.2323L103.158 19.316L104.248 18.8369L103.902 17.8721L101.496 18.4377L98.7445 18.1848L96.7438 18.7637L94.6434 18.0717L94.0585 17.6725L92.4965 16.8341L91.5194 17.3198L91.1937 18.0451L90.0704 18.5641L89.6251 18.8569L88.422 18.0251L87.4583 18.797L86.4147 18.0451L85.5041 18.0185L85.0056 16.721L83.9687 16.9672L84.0019 17.5594L82.5795 17.6259L81.9747 17.2134L79.8942 17.739L75.7799 17.4463L75.72 17.8056L72.2238 19.0099L71.7719 19.5422L69.4123 18.4776L67.2388 18.1848L64.8725 16.182L63.4102 16.4482L58.6378 15.2705L57.8402 15.5033L54.4969 14.0927L50.7813 13.8931L47.3317 11.4246L45.7497 11.1451L44.1279 10.0872L42.7388 10.0938L41.8215 8.67655L40.7115 9.18224L40.4124 8.61001L39.6746 8.8429L38.086 8.29063L36.2316 9.77443L33.2937 9.18224L34.1112 8.18417L33.3668 7.53875L33.4599 6.54068L32.5625 5.06354L32.516 3.02748L33.0278 1.09788L29.4651 0L29.505 0.0931528L29.7377 0.958144L30.3359 1.35072L30.1498 2.78129L29.0663 3.37348L28.3285 3.34685L28.1624 3.42005L26.5406 5.05689L28.5147 9.90085L28.0959 11.571V11.7839L28.4881 12.7553L27.85 13.5738L27.7104 13.627L25.1647 13.8732L23.5362 16.8474L23.503 17.932L22.1005 19.8483L22.2002 21.911L22.1603 22.0906L21.4026 23.4613L21.8413 24.1599L22.0606 24.3263L22.28 24.2198L22.3465 24.3329L22.4993 26.003L22.0274 26.6551L22.7453 30.0818L22.8782 30.4744L23.7755 32.2709L23.7556 32.9895L23.4432 34.5598L24.1943 35.7242L24.0813 35.8174L23.7822 35.8241L23.3833 36.0702L22.6588 36.5626L22.6854 36.9485L24.0746 40.6281L25.4239 41.9988L27.0856 42.8638L27.7902 42.7773L27.963 43.1632L26.9793 43.2963L26.4209 44.0348L26.3212 44.5472L27.1787 45.2126L27.3648 45.2924L27.7636 44.5538L28.7473 45.3589L29.5449 44.6603L30.1763 45.2458L30.2428 46.6631L30.6549 46.9425L30.8078 47.1754L30.5619 47.8275L29.9038 48.2334L31.0006 49.4444V50.3626L31.3262 50.6354L31.3196 51.4139L30.5353 51.9396L30.5619 54.6676L29.2724 55.2598L29.2524 55.6856L30.183 58.6399L30.0235 58.926L29.5848 59.1855L29.4253 59.3852V59.9906L29.3389 60.1836L27.8899 60.8756L27.8433 61.9868L27.7037 62.0999L27.4312 61.9668L27.0657 62.1798L27.3315 62.5723L27.8699 62.7387L28.1092 62.8318L28.4083 63.6702L27.8035 64.9145L27.9032 65.1008L28.3485 64.9211L28.415 65.0475L27.4445 65.7994L27.4046 66.5846L26.3345 67.23L26.7599 67.8954L27.2717 69.9713L27.6373 70.1244L28.4482 69.9381L28.9201 72.2403L27.8433 74.0501L29.1062 75.2877L29.2392 75.6071L29.2657 76.7782L30.0301 78.0491L30.1298 78.4416L29.7576 81.1031L29.7908 81.6221L30.7413 85.9737L30.6483 86.0802L29.864 86.2598L29.638 86.5593L29.9105 87.025L30.1099 87.1781L31.1601 87.025L31.4326 87.8834L32.1903 88.3491L31.9843 90.2721L32.3698 92.6076L31.8048 93.7055L29.1594 95.8679L28.9068 95.8945L28.2687 95.7482L27.8633 95.8214L25.0185 98.0238L24.4867 102.362L24.5931 102.562L25.0783 102.555L25.3508 102.961L25.4438 104.272L25.5369 104.505L25.0849 106.474L25.1846 106.581L25.6366 105.689L27.4578 108.976L26.8064 109.335L26.0421 109.528L25.3375 110.526L24.5332 110.48L23.6824 110.786L23.0311 110.839L20.2793 110.679L20.0533 110.892L18.2986 110.766L17.4677 111.291L17.1287 111.325L16.2779 111.252L15.8459 110.666L13.8652 110.56L12.9745 110.047L5.08478 103.906L4.37357 104.092L4.42675 105.037L4.19411 105.27L3.93489 104.857L3.78201 105.835L4.2207 106.754L2.58559 109.628L1.82786 111.89L2.12032 112.522L1.80128 113.068L1.03025 113.174L0.923901 113.534L1.61517 113.713L1.21636 114.931L0 115.876L0.864078 116.315L1.72816 118.185L3.44967 120.327L4.98508 120.7L7.03893 119.662L8.84685 121.312L9.03961 122.35L11.9243 123.155L12.0572 123.847L10.8542 125.131L11.911 125.531L12.7219 126.469L13.1938 128.478L14.9087 129.277L12.8416 130.082L11.9841 131.705L14.5431 131.113L17.3215 132.457L19.1892 133.954L19.1494 137.201L19.9736 139.377L19.7476 139.663L18.4182 139.324L18.8436 142.458L19.5615 144.407L20.8376 145.452L21.4225 147.029L20.1198 149.577L23.9084 149.271L23.6492 150.549L24.181 151.707L23.6758 153.317L24.6329 154.581L27.1321 152.971H28.6077L29.0331 153.37L28.7207 153.829L26.5672 154.288L26.5273 154.781L27.6306 156.032L27.5176 156.917L25.6765 157.269L24.9453 157.948L24.0746 157.183L23.9284 156.178L23.3501 156.85L23.4764 157.682L24.7659 159.159L26.5738 159.937L26.3943 160.523L27.2252 161.135L26.6801 162.379L28.0161 162.958L28.5811 165.347L30.748 166.278L30.5286 167.316L31.7516 167.277L32.1837 167.709L31.4725 169.506L33.3336 169.951L34.1511 171.249L35.4605 172.174L35.4007 172.58L34.4569 172.38L34.7427 173.158L34.4635 173.345L33.6593 172.999L32.8151 173.245L32.8218 173.91L32.2236 173.697L32.9348 174.882L34.0979 175.793L35.6267 175.407L36.6835 176.099L38.106 176.179L38.9169 175.607L39.6281 177.424L40.3326 176.971L39.7278 174.463L41.2831 175.195L44.6331 174.163L45.7165 169.985L47.2187 169.639L47.3117 167.336L48.0163 167.296L49.6248 164.961L51.3995 164.861L51.9246 162.719L52.4098 162.266L51.9179 161.874L53.0014 161.554L53.6461 160.609L55.5138 161.355L56.9562 160.383L58.1726 161.94L57.9 164.309L58.239 164.628L57.6408 165.873L58.2257 167.343L58.6777 166.664L59.7412 166.671L59.369 167.23L59.6149 167.662L60.6983 166.624L61.3896 167.044L63.8157 166.851L63.9685 165.127L62.9383 163.098L63.5166 161.514L66.7203 161.381L69.9374 162.439L70.0769 162.892L69.2993 163.617L67.6442 163.983L70.1168 164.482L73.6994 163.377L74.7031 162.273L74.8958 161.148L76.4445 158.726L78.1195 157.961L78.1129 158.314L78.8839 158.939L80.3661 153.836L80.087 153.23L80.4658 153.217L81.2236 151.354L81.3166 151.241L81.7553 150.469L79.3093 144.86L79.6549 142.751L77.8935 141.513L77.1225 139.277L80.4791 132.351L82.2538 132.118L83.6895 131.26L86.2087 132.238L87.857 131.193L86.2286 127.56L83.7959 126.462L84.3343 125.531L85.1917 125.351L84.4805 123.714L82.759 123.408L83.7759 119.742L85.9827 119.329L87.9634 120.487L89.3061 120.134L89.8577 118.238L88.6547 116.328L88.555 115.211L88.9538 114.113L91.2536 111.365L91.2137 109.522L90.5091 108.277L90.9212 107.372L92.2173 106.78L95.554 106.98L97.136 106.161L98.4985 107.452L99.2097 107.492L100.546 106.374L101.044 104.198L102.653 102.888L102.507 101.184L104.088 99.8868L103.823 97.1588L104.84 95.2558L108.588 92.7207L109.266 91.4365L108.675 90.0592L105.837 88.4689L104.826 86.7389L106.893 85.4414L108.203 83.5251L111.566 83.7314L111.686 83.432L110.742 82.7799L111.008 81.4026L114.624 81.3294L116.877 79.6992L118.133 77.9293L117.668 77.7031L115.793 78.3817L116.604 75.8999L120.526 76.0862L120.632 75.0881L119.217 73.0254L119.443 72.4133Z" fill="#F0EBE2"/>
</svg>
