<svg width="88" height="173" viewBox="0 0 88 173" fill="none" xmlns="http://www.w3.org/2000/svg">
<path d="M53.0878 113.84L53.6395 114.419L54.3174 114.465L53.7458 114.845L54.2975 116.841L54.5368 120.826L55.3344 121.438L55.2148 123.954L54.4171 125.051L56.9629 128.445L57.0293 128.857L58.0662 131.146L58.1726 131.259L57.0293 133.528L59.5883 142.079L60.0403 142.504L60.6784 143.349L60.6452 145L59.1364 147.854L60.5588 149.398L63.7426 140.588L61.024 135.465L62.9981 133.216L63.0181 132.138L63.0978 132.018L63.3836 132.903L63.8489 132.73L63.6096 130.368L65.1317 128.412L66.3415 125.71L65.7167 122.709L63.9154 119.336L63.603 115.35L62.5661 111.731L60.3727 108.876L60.1533 108.59L59.7213 106.94L58.2989 105.869L57.5079 105.729L56.9894 105.889L55.9791 105.742L56.0788 107.133L52.5627 110.253L54.0316 112.043L53.9984 112.789L53.0878 113.84ZM61.2434 157.103L61.024 151.959L61.383 151.56L62.8253 153.297L61.2434 157.103ZM40.3858 164.236L39.3556 163.63L38.7706 161.461L39.7012 160.523L42.9714 161.215L43.9019 160.104L44.3739 161.208L45.0651 162.459L44.3406 162.759L45.105 162.872L45.3509 165.387L43.5829 164.901L41.0372 165.62L40.3858 164.236ZM47.9232 156.67L49.9106 155.599L49.5052 153.836L48.4351 151.507L46.5274 149.158L46.461 148.979L44.6663 145.026L45.7697 143.23L43.6893 143.522L43.0445 142.691L41.9943 142.518L41.4493 142.704L42.8717 143.968L43.1642 145.146L41.0305 148.406L42.4729 149.152L43.0445 150.116L42.5925 150.868L40.4988 152.159L42.0342 152.851L43.656 154.548L44.7793 154.262L45.7099 154.847L45.7298 155.998L44.6796 157.316L45.105 159.405L45.67 159.545L44.9256 159.991L45.9425 161.115L46.8265 158.028L47.9232 156.67ZM36.5041 165.513L36.6304 166.691L35.8793 167.596L34.1578 167.576L31.8048 164.316L30.1697 163.158L31.18 158.7L30.7413 157.183L29.4917 155.885L29.4519 154.867L29.6047 154.322L30.4622 154.089L31.0803 154.302L31.1867 156.477L32.6755 158.487L32.1837 160.969L32.762 162.572L35.6732 164.329L35.6998 164.928L36.5041 165.513ZM44.2476 169.193L45.8029 169.925L44.786 171.149L43.5164 171.049L43.8554 171.462L43.5829 171.808L40.645 172.26L40.3393 171.255L41.3629 169.053L41.6886 169.16L42.7587 169.712L43.4633 169.499L44.2476 169.193ZM36.1651 151.733L38.0594 149.231L37.6806 147.581L38.3054 147.508L38.9501 147.528L39.6347 148.826L42.4995 149.937L40.1 151.5L40.4789 153.177L41.1768 153.749L42.433 153.689L42.7786 154.688L43.4101 155.073L45.2047 155.246L44.221 156.684L44.1213 156.817L44.5068 158.6L42.9116 160.849L39.5151 160.124L40.5453 154.455L38.7441 153.949L38.4383 153.929L37.4014 154.022L36.2582 153.137L36.1651 151.733ZM48.3686 136.855L48.5946 138.472L48.0097 140.222L49.2858 139.85L49.2393 141.041L50.7814 142.345L51.2333 140.894L52.689 140.282V140.003L52.7621 138.412L54.7295 137.561L56.1453 139.111L56.8299 138.066L55.9658 135.844L55.8728 134.32L55.9326 132.477L53.5531 133.508L53.4334 133.688L52.8485 132.73L53.0413 131.978L51.4726 131.22L50.7814 131.885L50.11 131.08L48.9269 132.011L49.5716 132.184L49.7046 132.643L49.1728 133.169L48.9468 134.453L48.0894 134.726L48.1692 135.684L47.6308 136.243L48.3686 136.855ZM58.9968 143.077L57.7738 142.691L56.9828 141.613L56.8366 139.57L57.3351 139.377L58.0596 140.036L58.5448 141.613L58.9968 143.077ZM43.8754 165.081L45.1382 165.6L45.4506 166.944L44.9322 168.627L44.1346 168.814L43.8886 168.853L42.8451 169.492L41.3895 168.68L41.1236 165.879L43.8754 165.081ZM55.4607 144.234L58.1526 142.99L59.3291 143.835L56.7767 145.778L55.3477 144.713L55.4607 144.234ZM72.8354 156.331L73.7792 159.072L73.6263 159.778L72.523 160.164L71.1338 159.877L70.9743 159.438L69.2461 159.791L69.0866 157.529L68.4153 156.571L69.7114 155.253L70.6087 152.731L70.1966 149.478L70.8347 148.559L71.1005 148.845L71.2867 149.85L71.7453 150.389L72.3834 150.509L71.732 151.72L72.7357 153.676L71.7519 155.453L72.8354 156.331ZM81.197 151.554L82.0544 154.934L81.3831 156.73L80.3462 157.442L79.8876 156.903L79.5419 157.109L79.5885 158.806L76.6506 159.438L75.8862 160.19L75.2415 159.871L75.5206 158.813L74.065 158.6L73.2475 156.278L72.0444 155.266L73.0215 154.275L72.6625 152.884L71.9846 151.613L72.8354 151.028L72.523 150.216L72.0444 150.103L71.5126 149.844L71.4661 148.486L70.9078 148.326L71.3132 146.643L69.6715 145.485L71.6655 144.061L71.825 140.342L73.9852 140.003L74.4638 140.043L75.0354 141.027L75.6403 143.097L78.731 145.499L78.9969 145.612L79.7281 145.598L80.8979 147.242L81.197 151.554ZM66.8267 157.302L66.933 156.564L67.7173 155.998L68.6346 157.768L67.9566 158.587L66.8267 157.302ZM84.2013 117.42L82.8454 117.02L82.4466 116.169L82.8919 115.104L84.547 115.071L87.4516 115.849L87.425 114.964L84.7331 114.791L86.654 112.349L87.3519 109.541L86.7205 108.843L84.5137 108.523L85.0654 105.902L82.9185 104.731L83.4702 103.586L84.3742 104.598L84.9591 104.325L85.8165 103.553L85.3047 102.954L83.7494 102.422L81.855 102.781L81.2502 102.209L83.9554 100.259L85.411 100.585L85.5972 98.6026L84.3409 98.6891L84.4207 97.7576L83.8291 97.1588L86.0824 96.7595L85.7633 95.7149L84.547 95.5685L85.8165 94.0914L85.1119 92.2749L84.301 92.8471L82.8786 92.7673L81.8218 92.0753L80.293 92.4612L79.1299 91.5496L78.4253 90.3652L79.0235 90.5782L79.0169 89.9194L79.861 89.6732L80.519 89.9061L80.8048 89.7198L80.519 88.9413L81.4629 89.1409L81.5227 88.7351L80.2133 87.8102L79.3957 86.5127L77.5346 86.0669L78.2458 84.2704L77.8138 83.8379L76.5908 83.8778L76.8101 82.8398L74.6433 81.9083L74.0783 79.5196L72.7423 78.9407L73.2873 77.6964L72.4565 77.0843L72.6359 76.5054L70.828 75.7269L69.5452 74.2497L69.4189 73.418L70.0038 72.746L70.1501 73.7574L71.0208 74.5225L71.7519 73.8438L73.5931 73.4912L73.7061 72.6062L72.6027 71.3553L72.6426 70.863L74.7962 70.4038L75.1086 69.9447L74.6898 69.5455H73.2142L70.715 71.1557L69.7579 69.8981L70.2631 68.2946L69.7313 67.1368L69.9905 65.8593L66.2019 66.1654L67.5046 63.617L66.9197 62.04L65.6435 60.9954L64.9257 59.0458L64.5003 55.9119L65.8297 56.2512L66.0556 55.9651L65.2314 53.7893L65.2713 50.5423L63.4036 49.0451L60.6252 47.7011L58.0729 48.2999L58.9369 46.6764L61.0041 45.8713L59.2892 45.0728L58.8173 43.0634L58.0064 42.1319L56.9496 41.7326L58.1526 40.4484L58.0197 39.7564L55.135 38.9513L54.9422 37.9133L53.1343 36.2632L51.0805 37.3012L49.5451 36.9286L47.8236 34.7861L46.8997 32.9097L46.0356 32.4705L47.2519 31.5257L47.6507 30.308L46.9595 30.1284L47.0658 29.7691L47.8368 29.6626L48.1559 29.117L47.8701 28.4849L48.6278 26.2226L50.2629 23.3482L49.8242 22.4366L49.9771 21.4585L50.2363 21.871L50.4756 21.6381L50.4224 20.6933L47.9232 18.8968L47.6241 18.5907L46.9129 17.393L43.4699 15.9891L42.9581 15.8627L42.5128 16.6678L41.9877 18.3844L40.6849 19.2361L40.0668 18.9766L39.1694 16.3218L38.9833 16.3151L38.3718 17.3864L37.6939 17.6991L35.0817 16.7875L33.5463 16.8008L33.3735 16.009L31.3728 15.3104L30.1431 11.3447L29.9437 11.052L28.5346 6.73364L28.1159 6.09488L24.6795 5.72891L24.1411 5.59585L23.6226 5.32304L22.5259 5.86866L22.6456 5.15003L22.5791 5.11677L21.9676 5.30308L21.8214 5.42284L21.9476 6.17472L21.8679 6.26787L19.8473 7.07963L19.701 7.07299L20.1397 6.18802L20.0334 6.07492L19.1826 6.41425L18.9101 6.36769L14.1842 4.73084L12.2301 2.72805L10.801 0L10.7478 0.838375L9.83058 0.645419L9.44507 2.24233L8.72722 2.96759L9.39189 6.16806L8.42811 6.54068L8.7538 7.79825L10.349 7.73171L10.1496 9.77443L11.1001 10.2069L10.2094 10.6793L10.9672 11.0852L11.1998 11.897L11.1134 13.3143L10.4554 14.6184L12.4228 13.6935L13.1872 15.2838L11.3593 15.2904L10.9472 15.7296L11.4059 18.5974L10.8276 19.0165L10.7412 20.1544L8.90668 20.161L9.01303 21.1125L8.28188 21.0593L7.86314 21.7845L6.71324 22.1305L6.19479 23.2085L4.37358 23.6343L3.66237 22.7028L2.77835 23.4613L1.99403 23.0354L1.04354 23.7807L1.01696 24.1466L1.72151 24.3928L1.76804 25.4974L2.64542 26.6884L1.70822 27.0011L2.04721 27.7796L1.40912 28.0923L1.30942 28.6446L0 28.9041L1.21636 30.175L0.305751 33.6017L0.903962 36.7889L0.14623 38.5255L2.0605 38.8981L1.93421 40.3686L1.34265 41.3201L2.4726 41.1338L2.672 41.4997L5.33071 40.8277L4.9452 41.8258L5.55006 42.4379L6.22138 44.5805L7.78337 45.5053L8.47464 46.9559L10.4687 47.5747L11.4391 49.4377L12.1902 49.6174L12.4826 49.0784L13.1606 49.5043L13.1473 48.6925L13.7189 48.2933L14.9087 48.4796L14.9818 49.6773L14.2839 50.509L14.4434 52.0992L13.6325 52.4718L12.8416 52.0061L12.3497 53.6163L12.5159 54.5013L12.0705 55.6058L12.6555 57.4822L10.8675 58.5268L11.6451 60.9887L11.2663 61.2016L10.4554 60.5163L10.1962 61.714L9.3786 61.0686L8.61422 61.887L10.256 63.6968L10.0499 64.8413L11.7183 65.8726L13.0343 65.7329L13.9981 67.1501L14.809 67.3431L15.8924 67.2766L15.5136 65.4667L15.5734 65.0342L16.1251 64.9544L16.936 65.3802L17.3614 65.8393L18.2986 66.7376L22.0806 66.3716L22.4329 67.8355L23.0311 67.5427L24.4668 68.2214L26.2016 66.9039L27.1388 67.556L26.6934 67.922L26.3412 69.652L25.517 68.92L25.0716 69.0731L24.6064 70.0246L23.6027 70.4704L23.1972 72.5331L22.6589 72.4732L22.5459 73.3781L21.7482 73.6842L21.0902 74.7288L19.3554 75.4541L19.1626 77.2373L19.9603 79.2201L19.5947 81.5822L17.933 81.7086L19.2557 82.5736L19.3022 83.9776L18.8503 84.8958L20.9639 85.2085L21.057 86.8055L22.1072 87.3511L21.4558 88.3425L21.828 90.1257L23.277 90.7645L24.1145 90.1257L25.4571 92.4745L24.8922 95.7215L23.6758 96.2405L22.5392 97.6645L22.4661 99.5342L24.9453 102.675L24.1943 104.751L23.2371 105.709L23.5229 107.485L24.6396 107.239L25.1049 107.652L23.7888 109.355L23.8287 111.311L25.1514 112.143L26.2548 116.135L27.4844 117.44L26.966 119.023L27.624 120.227L25.9158 121.645L27.3249 123.069L26.5273 123.9L26.9527 124.559L26.607 127.127L27.6173 127.307L29.1328 129.177L27.4911 129.197L27.3116 129.902L28.7672 130.847L28.5545 131.872L29.7177 131.652L30.2628 133.735L32.0441 135.611L32.2369 135.964L31.6121 137.434L31.9045 138.678L32.1837 138.938L33.3602 138.1L33.7922 138.525L33.7058 139.211L30.4356 142.484L30.8876 144.58L32.762 145.232L31.6785 145.272L33.081 147.708L33.1009 148.054L33.5197 152.984L33.1408 152.478L32.6755 153.856L32.4363 155.273L33.7058 157.509L33.9052 160.882L33.6659 161.441L37.0691 162.732L37.993 162.107L38.6244 159.778L39.0498 157.276L40.0468 154.887L36.524 154.568L35.6334 152.405L36.0322 150.862L37.6207 149.391L36.5839 146.377L37.0292 145.366L38.2389 144.82L37.0159 146.423L37.6008 147.129L39.1429 147.335L40.2662 148.819L42.772 145.139L42.2336 144.008L40.9175 143.117L40.326 141.18L40.1598 140.402L40.7447 140.056L40.3858 139.111L42.5261 138.153L41.3296 135.564L42.5394 134.44L42.1871 133.502L42.5128 132.424L42.8518 130.807L43.7358 130.009L43.0778 131.067L42.8385 133.968L46.4211 134.227L46.5673 133.382L45.8627 131.998L46.9196 132.983L46.6736 134.46L47.7305 135.658L47.89 134.673L48.6743 134.154L48.8339 133.429L49.5251 132.464L48.5082 132.058L49.1928 131.479L49.3191 131.339L49.8774 130.887L50.695 130.973L50.8478 131.393L51.3995 130.913L53.1476 131.659L54.0649 130.248L53.5664 129.563L52.7554 128.538L53.4135 127.493L52.0974 126.529L52.3899 125.763L51.2799 125.577L51.2599 124.033L50.1167 124.167L50.3427 122.882L49.6714 121.059L50.449 118.471L49.5118 118.77L48.907 117.932L43.4766 118.657L43.5829 117.672L45.2247 117.114L44.1612 116.288L47.8169 114.445L47.8501 115.364L49.3257 116.042L48.7541 117.007L48.887 117.599L49.5052 117.2L51.4593 117.786L51.8648 117.167L53.4334 117.12V115.982L52.7089 114.339V114.153L53.6594 112.27L51.6521 109.794L51.24 108.184L52.4696 107.459L52.8884 106.082L53.1144 105.789L53.2938 106.035L53.799 107.392L53.121 109.342L55.8994 107.046L55.8927 105.569L56.9762 105.742L57.7804 105.296L59.9074 106.78L60.273 107.619L60.479 107.918L60.6851 108.104L63.2773 112.05L64.6665 117.42L65.7898 114.944L67.1657 114.319L66.8998 113.201L67.2454 111.817L68.5017 112.236L68.7144 112.276L70.1567 110.739L70.7084 110.979L69.9307 111.95L70.1434 112.243L71.9779 111.677L74.4771 113.135L75.4675 113.94L76.4844 114.359L76.5708 115.184L77.4815 116.195L79.9009 116.268L82.3668 119.509L82.4266 120.327L84.4473 119.11L85.9029 118.81L86.4413 118.018L85.7301 117.24L84.2013 117.42ZM53.4334 107.306L52.2769 110.207L51.805 109.555L51.4128 108.157L52.5693 107.645L52.9615 106.241L53.4334 107.306ZM68.5881 160.842L71.0474 162.805L70.941 164.196L69.0932 165.354L68.0032 165.38L67.6442 164.994L67.0327 165.181L65.3777 164.662L65.9294 163.211L65.6834 162.186L61.9745 158.66L62.1208 158.287L61.5026 157.216L63.1975 153.23L64.0217 152.525L65.2181 152.432L66.1819 152.625L67.6908 154.88L66.4146 156.724L66.4478 158.094L68.5881 160.842ZM81.9946 119.582L79.5021 116.508L77.1558 116.308L75.8663 114.485L74.2445 113.228L71.8849 111.844L70.0504 112.529L69.6516 111.89L68.7409 112.536L67.498 112.363L67.2853 113.075L67.4515 114.519L66.0091 115.304L64.4604 118.125L66.2152 121.585L66.9663 125.364L66.5807 127.334L64.3607 130.521L64.7064 132.031L64.1347 133.835L63.3238 134.56L62.0277 134.859L61.8881 135.365L65.1783 140.388L64.5136 143.11L63.1444 145.405L61.5624 151.527L62.7987 152.831H63.2839L63.7359 152.146L64.0616 152.292L66.4146 152.392L66.594 152.618L68.3754 155.459L69.0932 155.133L69.5984 154.175L70.1833 151.926L69.5651 149.81L70.9809 146.776L69.738 146.211L69.3059 145.505L69.8775 144.494L70.2232 144.481L71.3531 143.928L71.4994 141.965L71.5791 140.342L70.4093 137.161L70.2498 135.691L70.5755 135.864L71.4927 135.378L71.9447 136.03L71.6655 136.642L70.6486 136.716L70.8014 137.587L71.8849 140.029L73.7327 139.683L74.6699 140.029L75.4608 141.373L75.7001 142.711L77.3352 144.141L77.6875 143.962L78.5649 144.58L80.0803 144.713L82.0345 142.511L82.533 140.741L82.0345 136.31L81.084 134.992L79.8078 134.34L79.4821 133.076L80.3529 129.403L82.8255 124.686L82.8454 123.568L81.4629 121.425L81.9946 119.582ZM53.1277 128.265L53.8787 127.101L53.7392 125.737L55.8927 127.986L57.2221 130.754L56.1586 132.038L55.5139 132.204L53.6195 133.169L53.3537 132.63L54.4039 130.414L53.9851 129.436L53.1277 128.265ZM46.2217 134.606L46.9129 136.336L44.334 138.938L43.8355 139.85L43.9219 141.32L43.2439 142.032L40.9441 142.338L40.326 140.502L41.5423 140.056L40.7049 139.244L42.7055 138.239L41.5291 135.651L42.7786 134.473L46.2217 134.606ZM44.6863 141.16L44.8325 141.446L43.8288 142.957L46.0422 142.398L46.5872 143.063L46.5673 143.935L46.3945 144.148L45.4041 144.853L47.5976 149.325L49.0532 150.835L48.6544 147.009L51.3796 142.983L49.0997 141.413L49.0798 140.122L48.2423 140.655L47.6973 140.342L48.1891 138.798L48.0695 136.889L47.6241 136.669L45.4108 138.818L44.6863 141.16ZM58.1194 146.956L57.1756 145.685L59.5086 143.902L59.7877 144.314L59.4886 145.266L58.1194 146.956ZM64.035 165.047L65.2913 167.609L64.1613 168.108L62.8718 168.022L61.9812 167.343L60.6585 164.355L60.9642 164.023L61.6023 164.509L61.3099 163.198L61.6621 162.805L60.4591 160.776L61.1104 158.899L65.0586 162.213L64.9656 163.797L64.1015 164.495L64.035 165.047ZM59.3424 152.272L59.2493 153.357L59.2826 153.63L58.8705 155.04L55.6003 154.947L56.1852 153.929L56.0855 152.944L54.6897 152.272L53.7126 150.928L54.7827 149.544L54.3307 145.465L54.9223 144.847L56.3779 145.891L56.7834 145.991L58.8638 151.174L58.9569 151.361L59.3424 152.272ZM49.2792 160.117L48.4351 161.215L48.3486 163.164L46.9595 160.337L46.7401 158.886L50.2097 156.71L49.2792 160.117ZM55.8794 160.323L55.7199 159.339L53.9386 159.166L53.7192 158.893L55.3078 158.926L55.793 158.54L56.019 156.371L56.81 155.479L55.2945 155.153L55.1749 154.581L55.9127 153.363L54.1912 152.412L53.4268 151.041L53.8655 149.977L54.4039 149.597L53.9386 145.751L55.3543 144.041L55.4208 143.948L57.6209 142.983L55.9592 140.921L56.2184 139.377L54.6099 138.06L53.0346 138.659L52.8086 140.495L51.2865 141.147L51.7518 143.602L49.3457 147.269L50.0236 151.727L51.0738 153.909L51.2267 156.956L49.0798 161.9L49.5318 162.499L49.8442 165.746L50.7614 166.844L52.2171 167.616L53.5065 167.137L53.9053 166.152L55.0818 165.28L55.228 164.362L55.6933 164.662L56.9762 162.818L56.8765 161.641L55.8794 160.323Z" fill="#F0EBE2"/>
</svg>
