<svg width="113" height="101" viewBox="0 0 113 101" fill="none" xmlns="http://www.w3.org/2000/svg">
<path d="M102.301 15.7828L103.018 19.2095L103.151 19.6021L104.049 21.3986L104.029 22.1172L103.716 23.6875L104.467 24.8519L104.354 24.9451L104.055 24.9517L103.656 25.1979L102.932 25.6903L102.959 26.0762L104.348 29.7558L105.697 31.1265L107.359 31.9915L108.063 31.905L108.236 32.2909L107.252 32.424L106.694 33.1625L106.594 33.6749L107.452 34.3402L107.638 34.4201L108.037 33.6815L109.02 34.4866L109.818 33.788L110.449 34.3735L110.516 35.7908L110.928 36.0702L111.081 36.3031L110.835 36.9552L110.177 37.3611L111.274 38.5721V39.4903L111.599 39.7631L111.593 40.5416L110.808 41.0672L110.835 43.7953L109.545 44.3875L109.526 44.8133L110.456 47.7676L110.297 48.0537L109.858 48.3132L109.698 48.5128V49.1183L109.612 49.3113L108.163 50.0033L108.116 51.1145L107.977 51.2276L107.704 51.0945L107.339 51.3074L107.605 51.7L108.143 51.8664L108.382 51.9595L108.681 52.7979L108.077 54.0421L108.176 54.2285L108.622 54.0488L108.688 54.1752L107.718 54.9271L107.678 55.7123L106.608 56.3577L107.033 57.0231L107.545 59.099L107.91 59.2521L108.721 59.0658L109.193 61.368L108.116 63.1778L109.379 64.4154L109.512 64.7348L109.539 65.9059L110.303 67.1768L110.403 67.5693L110.031 70.2308L110.064 70.7498L111.014 75.1014L110.921 75.2079L110.137 75.3875L109.911 75.687L110.184 76.1527L110.383 76.3058L111.433 76.1527L111.706 77.0111L112.463 77.4768L112.257 79.3998L112.643 81.7353L112.078 82.8331L109.432 84.9956L109.18 85.0222L108.542 84.8758L108.136 84.9491L105.292 87.1515L104.76 91.4897L104.866 91.6893L105.351 91.6827L105.624 92.0886L105.717 93.3994L105.81 93.6322L105.358 95.6018L105.458 95.7082L105.91 94.8166L107.731 98.1036L107.08 98.4629L106.315 98.6559L105.611 99.6539L104.806 99.6074L103.956 99.9134L103.304 99.9667L100.552 99.807L100.326 100.02L98.5717 99.8935L97.7408 100.419L97.4018 100.452L96.551 100.379L96.119 99.7937L94.1383 99.6872L93.2476 99.1749L85.3579 93.0334L84.6467 93.2197L82.1475 91.4232L81.8484 91.1171L81.1372 89.9194L77.6942 88.5155L77.1823 88.3891L76.737 89.1942L76.2119 90.9108L74.9091 91.7625L74.291 91.503L73.3937 88.8482L73.2076 88.8415L72.5961 89.9128L71.9181 90.2255L69.3059 89.3139L67.7705 89.3272L67.5977 88.5354L65.597 87.8368L64.3674 83.8711L64.168 83.5784L62.7588 79.26L62.3401 78.6213L58.9037 78.2553L58.3653 78.1222L57.8469 77.8494L56.7502 78.3951L56.8698 77.6765L56.8033 77.6432L56.1918 77.8295L56.0456 77.9492L56.1719 78.7011L56.0921 78.7943L54.0715 79.606L53.9253 79.5994L54.364 78.7144L54.2576 78.6013L53.4068 78.9407L53.1343 78.8941L48.4085 77.2573L46.4543 75.2545L45.0252 72.5464L45.3177 68.594L44.3938 66.5979L43.337 65.7794L41.323 65.3536L38.5978 65.9724L38.3386 65.3736L37.2352 65.2538L36.9959 65.6464L36.0588 65.347L35.8859 64.6217L34.8557 64.5152L33.9384 66.6245L32.3033 63.3774L30.9607 63.3442L27.2983 61.1418L25.9623 60.8024L23.7822 61.4744L22.2202 61.4212L20.1198 60.7226L16.5172 56.9432L11.8313 55.4528L10.3224 53.4233L8.58099 52.3787L5.83587 49.4311L2.24661 43.3961L0 41.34L3.37656 37.6073L3.94154 36.2565L3.53608 35.671L4.00136 35.0189L3.73549 34.3336L4.38022 34.2404L4.93191 33.4353L5.93557 33.6483L6.02862 31.9382L6.96582 30.7672L7.75014 30.0752L8.53446 28.8109L9.57135 28.4117L9.44507 27.6L9.46501 26.8148L8.99309 26.3291L9.96351 26.0829L8.09577 24.2265L8.0426 22.9423L8.97979 23.1286L10.5617 21.7246L13.5461 21.3454L15.7661 24.1599L16.6302 25.7036L16.7565 26.2825L18.0659 26.4355L18.3119 27.4403L19.4618 26.6817L21.0304 25.9565L19.6877 24.6922L20.2992 24.2065L20.6449 22.756L21.9942 21.9043L23.3036 22.8358L24.3671 22.2969L23.8752 21.1923L24.1211 20.7L25.3574 20.3673L25.1182 19.0299L25.7895 18.1183L26.5472 18.1449L27.624 16.1488L26.5472 15.1507L27.5642 13.1612L26.9394 9.94743L28.1757 8.8695L27.9098 7.31252L27.059 6.48745L27.1255 5.15669L28.7274 5.05023L29.1129 3.99228L30.4821 4.10539L30.5552 4.53789L32.7885 4.85726L32.7221 5.56257L34.191 5.32304L34.1511 6.32776L34.5965 6.44087L35.4805 6.32111L36.1917 5.32304L37.7869 4.49131L41.1103 4.86393L41.8414 4.21851L43.5297 4.25178L44.9721 4.87058L45.1515 5.71561L46.1951 6.43422L47.4978 5.5293L47.797 6.26122L49.4188 6.81348L50.0967 6.58726L51.1469 4.49131L51.9778 4.15196L52.5029 4.85726L53.2805 4.8373L53.9718 6.2213L55.2613 5.98176L56.2051 6.32111L56.3115 6.97318L56.8499 7.17279L57.2686 5.94849L58.3653 6.01503L58.2723 4.87058L57.6342 4.74415L57.581 3.67955L58.4584 4.00558L59.0832 3.57974L58.6046 2.08929L58.8372 1.0646L60.3328 0L62.5329 2.03606H67.3119L67.9101 3.02082L71.7918 3.67955L74.7829 3.35351V4.33827L73.8855 5.65573L74.1847 6.97318L75.082 8.9427L77.1757 10.2602L78.073 12.5624L79.8676 13.2211L81.6623 12.2363H83.4569L85.5506 14.8646L87.0462 15.8493H87.6444L88.2426 14.8646H90.0372L95.4145 17.8189H96.6109L99.3028 16.1754L102.301 15.7828Z" fill="#F0EBE2"/>
</svg>
