<svg width="113" height="112" viewBox="0 0 113 112" fill="none" xmlns="http://www.w3.org/2000/svg">
<path d="M97.455 109.808L94.4108 110.127L91.7255 111.771H90.5291L85.1518 108.816H83.3572L82.759 109.801H82.1608L80.6719 108.816L78.5782 106.188H76.7835L74.9956 107.173L73.2009 106.521L72.3036 104.218L70.2165 102.908L69.3192 100.931L69.0201 99.6207L69.9174 98.3032V97.3185L66.9264 97.6445L63.0447 96.9858L62.4464 96.001H57.6674L55.4673 93.9716L55.9725 93.4393L57.2154 93.7321L57.4614 92.3414L56.1121 92.3348L55.7199 91.6361L55.2812 91.8956L54.0516 91.5031L53.3404 91.9156L52.8551 91.2768L52.1439 91.7958L50.9542 89.6001L50.0037 89.7598L49.8442 90.4983L48.8206 89.4138L48.7873 88.7417L47.0392 87.757L47.1256 85.7276L45.3709 84.6164L46.2549 84.277L46.6271 83.4586L46.1087 82.374L46.9462 81.5157L46.7534 80.4045L46.3081 79.3133L45.2247 79.2002L44.9654 76.9578L44.1612 76.8314L43.2173 77.4436L42.0076 76.8447L42.001 77.7363L42.6258 78.3684L42.3998 78.8409L40.7713 79.2734L40.5121 78.1622L38.7839 78.5148L38.7241 79.7325L38.0262 80.3779L35.9192 80.3247L35.5868 79.7059L34.9687 79.8922L34.8557 78.6612L33.3934 78.6346L32.4562 77.4103L31.745 78.0424L30.502 77.936L28.96 77.0976L28.3086 77.8561L28.1823 76.1926L27.737 75.5605L27.0856 76.0396L26.288 75.4075L25.4306 74.3429L25.6433 72.726L23.9284 72.7393L23.051 71.6947L22.2999 71.6481L22.5525 70.0246L23.0311 69.5256L22.9447 67.2766L19.8539 66.6711L19.814 65.7662L19.0829 65.8127L18.9234 65.1673L17.8532 64.9145L18.0726 63.6968L17.0024 63.3309L16.916 62.7919L14.8024 62.1465L14.377 61.0686L11.4192 59.0591L11.6651 57.8947L11.3062 57.1162L10.8808 56.8567L10.1762 56.9432L9.91034 57.4356L9.3786 57.2094L9.05955 58.0344L8.12901 57.8481L7.48427 58.6799L6.62683 57.7683L6.09509 57.7616L5.38389 58.7464L4.75244 58.6L3.94818 59.485L3.46962 59.139L3.31009 58.101L1.79463 57.908L1.98739 56.9765L1.41576 56.7636L1.01031 55.8986L1.449 55.18L0.943842 54.7009L1.68163 54.0621L0.930548 51.8597L1.24295 51.5004L0.265871 51.2209L0.166169 50.6421L0 49.4577L0.458627 48.626L1.56199 48.3199L1.86774 46.7429L2.51248 46.1707L2.27984 45.4588L3.63579 43.8419L3.46297 43.0767L6.14827 42.2317L5.27754 41.6262L5.59658 41.2136L5.78934 40.6747L5.62982 39.9694L6.13497 39.7298L6.08844 39.151L4.93855 38.1263L4.55969 37.3611L5.7694 35.3649L5.47029 35.1919L5.73617 33.8346L6.793 33.4753L7.45103 32.9762L8.78704 32.3375L9.37195 31.7985L9.15926 31.2928L10.0566 30.8204L10.3291 31.1797L11.6983 31.0067L12.7884 30.0153L13.2138 30.3679L14.4434 29.9953L15.2477 29.1037L16.4508 28.6978L16.9626 27.3005L16.4109 26.9812L16.4042 24.4394L18.7505 22.217L20.4122 22.0573L19.8406 21.0593L20.3325 20.6268L21.7815 20.6002L23.0178 18.0651L23.277 19.0299L24.8323 19.7618L25.0317 19.0232L26.1883 18.9899L26.0022 19.8483L27.1853 19.0232L26.6536 18.7637L26.6403 18.1449L26.9261 17.0803L26.494 17.1535L26.0421 16.3417L26.3079 15.836L25.4173 15.663L25.2843 15.1108L25.5369 14.4587L25.5236 13.8665L24.3604 12.6089L24.5931 12.0101L21.7482 11.6974L20.7911 11.7306L19.6877 10.3267L18.8635 10.7658L17.3946 10.2136L16.6635 13.0747L16.2447 11.6508L15.3208 10.7991L15.3341 9.76112L16.4574 8.48359L17.0024 6.00173L17.7402 5.11677L17.5541 4.14532L18.0128 2.83452L18.8037 2.17579L18.7107 1.63018L20.2062 0L20.8709 4.55785L21.6153 6.07492L22.5392 6.83345L23.2836 6.0483L24.7725 6.45419L25.2577 8.34386L27.1787 8.89613L27.2983 10.5862L29.4386 10.0872L28.8869 10.8723L29.5715 11.2117L29.1926 12.3095L31.6785 12.8219L31.5655 11.2715L33.1541 11.3248L33.3934 13.7933L34.9554 14.3589L34.7294 14.991L35.6599 15.0908L36.2582 15.7562L37.3083 15.5034L37.3283 16.1554L37.428 17.1202L36.9627 17.606L37.8866 18.8036L37.88 20.0945L38.3652 20.7865L40.2861 19.3559L41.1568 19.4823L41.9278 20.8264L41.6287 21.7978L41.9278 23.122L44.2542 22.257L45.6633 23.1153L45.2978 24.5592L45.5171 25.9498L46.5673 26.4821L46.3812 26.9013L47.2386 27.7131L49.6248 27.3937L48.5613 26.0829L48.568 24.7255L49.8242 23.7474L52.7222 23.9736L54.1845 26.7682L54.9356 27.2074L59.1363 26.6219L60.2464 27.061L60.5853 26.0563L61.1171 26.2559L60.6252 24.6789L61.1104 24.466L60.8379 23.5811L60.1068 23.4014L60.0204 24.0269L58.8572 24.1666L58.2523 23.6942L57.7671 22.8758L57.036 23.6343L56.9828 23.0421L56.2716 22.8358L56.2915 21.7646L56.7767 21.4518L57.2553 21.1857L56.3115 20.6268L56.245 19.5555L54.8093 19.4091L54.5235 20.9062L54.1779 20.1943L53.892 19.7751L53.779 19.0565L52.7421 18.4843L52.1905 18.8369L51.7917 18.3246L51.7053 17.9187L51.5391 17.3997L52.0974 16.914L52.1639 16.1421L51.2533 15.4102L52.7488 15.2971L52.5095 14.3057L52.6557 13.7268L53.7525 14.2258L54.1646 13.5072L53.8721 12.6755L54.5567 11.8704L56.1586 12.762L55.8994 13.4739L56.5375 14.6384L56.903 14.4387L57.2885 14.4654L57.6874 15.1707L58.578 15.1174L59.3357 16.3883L59.8941 16.0556L61.9612 16.6079L62.606 16.2952L63.1576 16.6944L62.8054 18.278L62.1872 18.5907L63.1842 18.8835L63.4501 20.5336L63.2972 21.1125L64.3807 21.8378L65.7765 21.7247L65.6967 22.4765L65.5305 23.1885L64.9057 23.9603L63.7891 21.9908L63.5565 22.6895L63.9353 23.7674L63.5299 24.3862L64.9057 25.4574L64.7728 26.3624L65.9294 27.6332L65.9559 28.8841L66.4544 29.483L65.5372 31.4525L66.8798 32.7899L66.3813 32.9629L66.7469 34.0675L67.5844 34.9857L69.0932 35.4714L69.7579 35.1321L71.1138 35.4248L72.8088 37.5274L73.7327 37.5674L73.068 39.477L74.0451 39.6899L74.404 40.5083L75.7533 40.4884L77.2289 41.3334L78.731 43.1632L81.5892 43.416L81.5094 42.4978L82.4333 41.7925L82.5396 41.1671L83.53 40.7412L84.1149 41.4066L83.7427 42.8172L84.0883 43.2963L86.5676 44.1147L87.5181 43.4493L88.4353 43.8685L89.2462 43.3162L90.5556 43.5159L91.2602 43.8951L90.4825 44.6337L90.6354 45.9245L91.5261 46.3304L92.2373 45.3922L92.7757 45.3124L93.5666 45.5719L93.6331 44.301L93.128 43.6689L93.4337 42.2184L93.5268 41.3733L93.899 40.8344L95.1885 40.2355L96.1057 39.6433L97.4284 39.5036L96.458 38.4922L96.8501 37.6605L96.1788 36.5094L95.7268 36.9885L95.3945 37.3478L94.8628 37.8069L93.9389 36.9286L94.0253 36.4761L94.2313 36.0969L95.3214 36.5427L96.1988 35.6843L95.9196 35.0655L95.0821 35.1321L94.6567 35.844L93.8126 33.0561L94.125 32.8099L94.989 33.3023L94.9359 32.77L95.0156 32.1112L95.3613 31.5989L95.687 32.058L96.2519 32.0314L97.3752 32.5238L97.8272 31.5324L96.7239 31.5457L96.006 31.0333L96.2719 30.4478L97.0961 31.1664L97.4484 30.7738L96.4248 29.3765L96.4912 28.1655L97.7076 28.8043L98.7112 28.791L99.2629 27.6133L99.7083 28.2387L99.9077 28.6446L99.9941 29.3699L99.1034 29.5429L98.904 29.9887L99.582 30.2349L99.7415 31.366L100.699 32.038L99.6218 32.2975L99.4158 32.8165L101.071 33.3355L101.516 32.3242L101.789 33.1891L103.543 33.1492L104.773 35.0921L104.055 36.363L105.797 36.6225L105.724 38.1462L106.508 38.0997L106.315 38.7251L106.82 39.9095L105.876 40.1357L106.116 40.7079L105.989 41.1537L106.342 41.553L106.86 41.1737L107.419 40.9941L108.229 43.263L107.704 44.4208L108.037 44.9331L109.08 45.1993L108.741 44.0615L109.067 43.1698L109.678 43.6888L109.911 44.7468L111.3 45.5386L111.094 45.9977L109.187 46.377L109.811 47.5813L108.681 47.242L108.362 47.7809L109.472 48.3066L111.42 47.8142L112.231 48.0138L111.679 49.451L108.974 52.8578L109.08 53.8026L108.502 54.0022L108.529 55.0868L107.512 56.5041L108.475 57.1628L109.319 59.8642L108.582 62.8385L108.961 63.7367L110.071 64.0694L109.898 65.4268L111.28 67.5893L112.005 69.9913L111.074 74.1965L111.214 75.4208L110.204 75.9199L110.596 77.6099L110.037 79.107L110.13 80.8902L108.462 84.2571L104.899 83.1592L104.939 83.2523L105.179 84.1173L105.777 84.5033L105.591 85.9405L104.507 86.5327L103.763 86.5061L103.597 86.5792L101.975 88.2161L103.942 93.06L103.524 94.7368V94.9497L103.916 95.9212L103.278 96.7329L103.138 96.7862L100.592 97.0324L98.9638 100.007L98.9372 101.091L97.5348 103.007L97.6345 105.07L97.5946 105.25L96.8369 106.614L97.2755 107.319L97.4882 107.479L97.7076 107.372L97.774 107.479L97.9269 109.149L97.455 109.808Z" fill="#F0EBE2"/>
</svg>
