<svg width="98" height="84" viewBox="0 0 98 84" fill="none" xmlns="http://www.w3.org/2000/svg">
<path d="M22.0673 0.612148L22.6921 0.938188L22.5259 1.26423L24.4801 1.50377L25.4771 2.19576L26.5738 2.34214L27.079 1.96287L27.5309 2.54176L29.2724 2.74802L30.3026 2.34214L30.9474 3.30694L31.9311 3.77936L33.5064 3.70617L33.6858 4.824L35.4605 4.71089L36.0853 4.05216L38.9634 3.76605L39.4685 3.12063L40.2329 2.99421L40.2994 2.15583L42.6125 1.94291L42.7055 2.34214L41.7351 3.04079L41.8747 4.00559L43.1376 4.05882L43.2904 5.20328L44.3007 5.5892L46.4476 4.52459L47.4978 4.4647L48.209 3.11398L50.4955 3.63298L51.0472 1.67676L52.8551 2.46856L56.1453 1.4971L58.1858 1.80983L61.5956 1.17773L65.7432 1.96287L67.3119 0.964799L68.3421 1.52373L71.0939 1.03799L75.1418 2.86779L75.4874 3.10067L75.1285 4.02555L76.8832 4.63105L78.1195 5.64242L79.1032 5.20328L80.9112 5.80211L79.6616 6.01504L80.9843 7.3458L86.0558 9.03586L86.993 8.39044L88.103 8.62998L88.648 9.34859L88.0631 10.4199L89.4589 10.4864L89.8178 10.9522L93.4005 11.8637L92.8222 14.2524L93.1279 15.8627L94.2114 16.2486L95.122 15.6165L95.9462 16.9206L95.0156 16.7609L94.5969 17.1735L95.6271 17.9253L96.2852 17.9187L96.91 17.1069L97.0429 19.296L97.8737 20.527L97.2822 20.8264L97.5879 22.0241L97.0695 22.603L95.7335 22.8225L94.4174 22.3834L94.2778 23.3615L93.4204 23.5944L93.3672 24.1001L91.9315 24.1533L91.0475 23.8805L90.3895 23.0754L89.5254 22.7627L89.1997 22.0773L88.5816 22.1638L87.3386 21.2988L86.3482 21.1924L85.0255 19.4557L84.075 20.5004L83.1112 20.4338L82.4931 20.3606L82.3269 19.8749L81.7154 20.1277L81.423 20.8796L82.0478 22.2037L81.423 22.8292L81.6423 24.2864L82.4665 24.8386L83.8557 25.7436L84.188 27.9859L84.7131 28.3851L84.2944 29.7491L84.7663 30.2216L84.1947 31.5057L85.0189 31.9915L82.8055 35.2651L82.0677 37.4143L81.1239 42.6775L80.8181 48.1536L77.5612 46.5234L77.2355 45.8114L76.1454 46.4768L76.4977 47.2886L75.9327 48.107L76.624 50.2628L76.2584 50.7951L76.8301 51.7466L76.5974 52.2656L77.2023 52.8312L76.8301 53.43L75.1085 53.2703L74.1448 55.7988L71.9846 56.7436L67.0726 56.1647L66.4411 55.4794L65.5771 55.9252L64.826 55.7123L64.2344 56.1714L66.3348 59.0658L66.1553 60.2967L64.8526 59.5914L64.826 58.6532L63.7691 57.9147L61.4827 59.312L62.8186 63.9497L60.9576 70.4637L60.8246 72.4665L59.482 72.8192L58.8771 72.0873L58.465 70.304L56.584 68.6938L57.0958 68.3877L57.0426 67.5893L56.6372 67.0637L54.9555 67.9353L54.4637 67.2233L53.4334 67.1169L50.4623 65.3403L51.6321 72.3867L49.7311 72.4532L48.3819 71.8078L47.9299 71.0825L47.2851 71.3088L46.8199 70.6234L45.783 67.8754L45.7365 66.4781L44.5201 67.5627L45.2778 69.3858L45.0452 70.1577L44.4004 70.2375L44.4137 71.5749L43.769 72.6661L44.1612 74.2298L43.6494 75.1613L42.2735 75.7003L41.5423 75.4408L41.1701 75.7003L41.2898 76.6784L40.7447 76.9046L38.1126 76.9578L35.075 76.1062L34.7095 75.4874L31.8181 75.474L29.7111 74.5824L27.7037 74.6889L27.6439 76.6119L28.8536 78.6413L28.5013 80.1517L27.4711 81.5889L27.7104 83.6915L23.2438 82.221L22.6389 81.9149L22.7253 80.8703L23.3966 80.9501L23.7223 79.3466L23.0975 78.0291L22.1205 77.9027L22.3331 75.5206L21.5422 75.7069L20.924 75.2412L21.1035 74.3562L22.3331 73.9104L21.057 73.4713L21.0703 72.3933L20.5053 72.2403L21.396 70.9295L21.6153 69.7185L23.1441 68.9866L23.8287 69.2128L23.7157 68.1549L21.8214 68.7537L21.376 68.3412L21.8812 67.1701L22.6256 67.556L22.7585 66.7509L23.3036 66.9705L23.9217 66.2718L24.4468 66.2918L24.4269 64.269L23.5761 63.8366L22.8915 64.1493L22.0606 65.2804L21.8346 66.365L22.1404 66.731L21.4159 66.8707L16.5305 65.9392L15.2078 64.2291L16.4641 62.4592L15.9988 62.2263L14.1244 62.9117L14.9353 60.4231L18.8635 60.6095L18.9699 59.618L17.5541 57.5554L17.7934 56.9831L18.6508 57.1495L20.0799 56.178L19.0031 54.3283L18.3517 54.468L17.8067 54.0488L17.6871 53.1506L19.0629 53.1905L19.2557 52.6316L18.365 49.451L17.4145 49.3978L17.9529 50.2894L16.8695 49.8702L15.7794 51.3673L15.6664 50.3626L16.3444 50.01L14.6894 49.5575L14.0114 50.0765L13.586 49.8636L14.9154 48.2467L15.4205 49.1982L15.8725 48.7857L17.5275 46.8028L18.7838 43.7554L16.5505 42.571L16.9758 41.9655L16.7765 41.1404L15.3407 40.5682L15.1879 39.5835L16.371 40.1823L16.3644 39.6101L16.9559 39.6234L17.0822 38.4989L18.026 38.4856L18.5644 37.8934L17.8931 36.8953L19.0762 36.689L19.1161 35.6444L17.8865 35.1055L18.4448 34.4467L18.139 33.3755L17.1221 34.4068L15.4803 33.3621L14.3504 33.9344L14.1177 33.442L13.041 33.4287L13.7256 32.9163L13.4531 32.0114L13.9117 32.251L14.1643 31.7586L13.7123 31.7919L13.7256 31.3061L12.928 31.213L12.8083 30.8137L13.4198 30.4079L14.3304 30.6008L14.2507 29.982L15.1148 29.3632L14.1908 28.8043L15.1214 27.2939L15.0084 26.043L13.9848 25.4375L13.3135 26.369L13.5129 26.908L12.6289 27.6066L13.4597 28.6047L12.4693 28.7511L11.4657 27.1874L11.8578 25.8567L12.4095 25.4308L12.137 24.8919L11.4923 24.8653L10.7212 22.3235L9.31212 21.2323L7.00568 20.873L6.17484 22.3767L5.57663 22.2303L5.28417 21.5184L4.4201 21.7779L3.70224 20.3207L1.46228 20.2675L1.39581 18.5708L0.970423 18.604L2.27319 18.0251L2.51911 17.1934L1.82121 16.2353L0.777661 15.9758L0.997016 13.9796L0.172802 12.8618L0.518448 12.2896L2.08042 11.6308L0.132923 11.0586L0 8.81628L0.923891 8.59671L1.70821 9.30201L2.70522 8.98263L2.53242 7.74502L1.22964 6.54069L1.62181 5.7888L1.45565 3.87252L2.54571 3.39344L2.20008 2.42864L9.29883 0.465764L12.3829 0.751883L16.8363 0.312729L19.8273 0.66538L21.2099 0L22.0673 0.612148Z" fill="#F0EBE2"/>
</svg>
