<svg width="35" height="35" viewBox="0 0 35 35" fill="none" xmlns="http://www.w3.org/2000/svg">
<path d="M18.7451 5.10416C18.6211 4.88286 18.4403 4.6986 18.2214 4.57036C18.0025 4.44211 17.7534 4.37451 17.4997 4.37451C17.246 4.37451 16.9969 4.44211 16.778 4.57036C16.5591 4.6986 16.3783 4.88286 16.2543 5.10416C15.9626 5.63499 15.6822 6.17263 15.4128 6.71708C14.5644 8.4393 13.843 10.2213 13.2545 12.0487C13.0518 12.6773 12.451 13.1133 11.7626 13.1323C9.67608 13.1871 7.59632 13.3943 5.53993 13.7521C4.41118 13.9504 3.98681 15.2367 4.78889 16.0212C4.97167 16.2011 5.15639 16.3785 5.34306 16.5535C6.73877 17.8717 8.21449 19.1024 9.76181 20.2387C10.297 20.631 10.5172 21.3033 10.3131 21.9187C9.53531 24.2565 8.97871 26.6621 8.65056 29.104C8.50472 30.205 9.68306 30.9823 10.7068 30.4573C12.7369 29.4164 14.6781 28.2107 16.511 26.8523C16.7981 26.6427 17.1443 26.5298 17.4997 26.5298C17.8551 26.5298 18.2014 26.6427 18.4885 26.8523C20.321 28.2112 22.2623 29.417 24.2926 30.4573C25.3149 30.9823 26.4947 30.205 26.3489 29.104C26.2925 28.6908 26.2308 28.28 26.1637 27.8717C25.8268 25.852 25.3329 23.8616 24.6864 21.9187C24.4822 21.3033 24.701 20.631 25.2376 20.2387C26.9931 18.9525 28.6549 17.5431 30.2106 16.0212C31.0126 15.2367 30.5897 13.9504 29.4595 13.7521C27.4034 13.3922 25.3235 13.185 23.2368 13.1323C22.9069 13.127 22.5866 13.0202 22.3196 12.8263C22.0527 12.6324 21.852 12.3609 21.7449 12.0487C20.9701 9.64347 19.9655 7.31691 18.7451 5.10416Z" fill="#C8AD55" stroke="#C8AD55" stroke-width="1.5" stroke-linecap="round" stroke-linejoin="round"/>
</svg>
